<svg id="Capa_1" enable-background="new 0 0 512 512" height="512" viewBox="0 0 512 512" width="512" xmlns="http://www.w3.org/2000/svg"><g><path d="m482.367 195.737c.007.003-93.031-180.112-93.044-180.112-2.494-4.822-7.519-8.125-13.323-8.125-6.25 0-11.603 3.825-13.858 9.26l-.993 2.397-105.149 485.343c137.243 0 248.5-97.826 248.5-218.5 0-32.188-7.92-62.749-22.133-90.263z" fill="#5a4763"/><path d="m474.5 286c0-32.188-7.92-62.749-22.133-90.263.006.002-78.209-151.417-91.218-176.581l-14.958 36.112c-5.504 13.287-19.657 20.777-33.748 17.898-18.133-3.705-37.027-5.666-56.443-5.666s-38.31 1.961-56.443 5.666c-14.091 2.879-28.244-4.61-33.748-17.898l-15.95-38.508c-2.256-5.435-7.609-9.26-13.859-9.26-5.804 0-10.829 3.303-13.323 8.126-.013-.001-93.051 180.114-93.051 180.114-14.206 27.511-22.126 58.072-22.126 90.26 0 120.674 111.257 218.5 248.5 218.5 120.674 0 218.5-97.826 218.5-218.5z" fill="#6b5675"/><path d="m361 181v150c41.421 0 75-33.579 75-75 0-41.422-33.579-75-75-75z" fill="#baa04c"/><path d="m406 256c0-41.421-20.147-75-45-75-41.421 0-75 33.579-75 75s33.579 75 75 75c24.853 0 45-33.579 45-75z" fill="#e0ac5e"/><path d="m361 211c-24.853 24.853-24.853 65.147 0 90 24.853-24.853 24.853-65.147 0-90z" fill="#5a4763"/><path d="m151 181v150c41.421 0 75-33.579 75-75 0-41.422-33.579-75-75-75z" fill="#baa04c"/><path d="m196 256c0-41.421-20.147-75-45-75-41.421 0-75 33.579-75 75s33.579 75 75 75c24.853 0 45-33.579 45-75z" fill="#e0ac5e"/><path d="m151 211c-24.853 24.853-24.853 65.147 0 90 24.853-24.853 24.853-65.147 0-90z" fill="#5a4763"/><path d="m270.677 320.25h-29.354c-8.463 0-15.323 6.86-15.323 15.323 0 4.548 2.02 8.86 5.513 11.772l24.487 20.405 24.487-20.405c3.494-2.911 5.513-7.224 5.513-11.772 0-8.463-6.86-15.323-15.323-15.323z" fill="#81658f"/><path d="m145.696 205.696c-27.737 27.737-27.737 72.87 0 100.607 1.465 1.464 3.385 2.196 5.304 2.196s3.839-.732 5.304-2.196c27.737-27.737 27.737-72.87 0-100.607-2.93-2.927-7.678-2.927-10.608 0zm5.304 83.877c-14.817-19.833-14.817-47.313 0-67.146 14.817 19.833 14.817 47.313 0 67.146z"/><path d="m151 173.5c-45.49 0-82.5 37.01-82.5 82.5s37.01 82.5 82.5 82.5 82.5-37.01 82.5-82.5-37.01-82.5-82.5-82.5zm0 150c-37.22 0-67.5-30.28-67.5-67.5s30.28-67.5 67.5-67.5 67.5 30.28 67.5 67.5-30.28 67.5-67.5 67.5z"/><path d="m361 308.5c1.919 0 3.839-.732 5.304-2.196 27.737-27.737 27.737-72.87 0-100.607-2.93-2.928-7.678-2.928-10.607 0-27.737 27.737-27.737 72.87 0 100.607 1.464 1.464 3.384 2.196 5.303 2.196zm0-86.073c14.817 19.833 14.817 47.313 0 67.146-14.817-19.833-14.817-47.313 0-67.146z"/><path d="m361 338.5c45.49 0 82.5-37.01 82.5-82.5s-37.01-82.5-82.5-82.5-82.5 37.01-82.5 82.5 37.01 82.5 82.5 82.5zm0-150c37.22 0 67.5 30.28 67.5 67.5s-30.28 67.5-67.5 67.5-67.5-30.28-67.5-67.5 30.28-67.5 67.5-67.5z"/><path d="m241.323 312.75c-12.585 0-22.823 10.238-22.823 22.823 0 6.794 2.993 13.186 8.212 17.533l21.543 17.952c-1.605 10.843-10.972 19.191-22.255 19.191-4.143 0-7.5 3.357-7.5 7.5s3.357 7.5 7.5 7.5c12.253 0 23.152-5.907 30-15.023 6.848 9.116 17.747 15.023 30 15.023 4.143 0 7.5-3.357 7.5-7.5s-3.357-7.5-7.5-7.5c-11.282 0-20.649-8.348-22.255-19.191l21.542-17.952c5.22-4.348 8.213-10.739 8.213-17.533 0-12.585-10.238-22.823-22.823-22.823zm37.177 22.823c0 2.329-1.025 4.52-2.815 6.01l-19.685 16.404-19.686-16.404c-1.789-1.49-2.814-3.681-2.814-6.01 0-4.313 3.51-7.823 7.823-7.823h29.354c4.313 0 7.823 3.51 7.823 7.823z"/><path d="m489.025 192.298c-.924-1.809-6.745-13.079-46.522-90.082l-45.472-88.013c-.335-.648-.689-1.332-1.093-1.998l.046-.024c-3.885-7.513-11.543-12.181-19.984-12.181-9.128 0-17.286 5.45-20.787 13.89l-15.95 38.508c-4.115 9.934-14.761 15.58-25.318 13.42-37.788-7.721-78.104-7.72-115.889 0-10.558 2.159-21.204-3.486-25.318-13.42l-15.951-38.512c-3.501-8.436-11.659-13.886-20.787-13.886-8.443 0-16.101 4.668-19.95 12.2-.333.557-.621 1.113-.888 1.63l-38.793 75.081c-1.901 3.68-.459 8.204 3.221 10.105 3.679 1.903 8.205.459 10.105-3.221 18.118-35.07 38.964-75.419 39.612-76.664l.032-.062c1.298-2.511 3.85-4.07 6.66-4.07 3.043 0 5.763 1.818 6.93 4.63l15.95 38.508c6.857 16.559 24.599 25.963 42.178 22.377 35.814-7.318 74.068-7.318 109.885 0 17.581 3.593 35.319-5.818 42.178-22.377l15.949-38.504c1.168-2.815 3.888-4.633 6.931-4.633 2.81 0 5.361 1.56 6.66 4.071l.032.062c1.266 2.429 91.26 176.635 93.012 180.047 14.131 27.355 21.296 56.565 21.296 86.82 0 116.346-108.112 211-241 211s-241-94.654-241-211c0-30.251 7.163-59.461 21.289-86.817l39.64-76.736c1.901-3.681.459-8.205-3.221-10.105-3.68-1.902-8.205-.459-10.105 3.221l-39.641 76.737c-15.236 29.506-22.962 61.031-22.962 93.7 0 60.551 26.753 117.421 75.331 160.135 48.306 42.473 112.468 65.865 180.669 65.865s132.363-23.392 180.669-65.865c48.578-42.714 75.331-99.584 75.331-160.135 0-32.674-7.728-64.2-22.975-93.702z"/></g></svg>